<svg width="18" height="25" viewBox="0 0 18 25" fill="none" xmlns="http://www.w3.org/2000/svg">
<path d="M8.99862 15.7895C11.157 15.7895 12.8993 14.0263 12.8993 11.8421V3.94737C12.8993 1.76316 11.157 0 8.99862 0C6.84026 0 5.09798 1.76316 5.09798 3.94737V11.8421C5.09798 14.0263 6.84026 15.7895 8.99862 15.7895ZM16.6829 11.8421C16.0458 11.8421 15.5127 12.3158 15.4087 12.9605C14.8756 16.0526 12.2101 18.4211 8.99862 18.4211C5.78709 18.4211 3.12166 16.0526 2.58857 12.9605C2.48456 12.3158 1.95147 11.8421 1.31436 11.8421C0.521235 11.8421 -0.102866 12.5526 0.0141527 13.3421C0.651257 17.2895 3.77176 20.3816 7.6984 20.9474V23.6842C7.6984 24.4079 8.2835 25 8.99862 25C9.71373 25 10.2988 24.4079 10.2988 23.6842V20.9474C14.2255 20.3816 17.346 17.2895 17.9831 13.3421C18.1131 12.5526 17.476 11.8421 16.6829 11.8421Z" fill="white"/>
</svg>
