<svg width="22" height="16" viewBox="0 0 22 16" fill="none" xmlns="http://www.w3.org/2000/svg">
<path d="M21.3536 4.35356C21.5488 4.15829 21.5488 3.84171 21.3536 3.64645L18.1716 0.464468C17.9763 0.269205 17.6597 0.269205 17.4645 0.464468C17.2692 0.65973 17.2692 0.976312 17.4645 1.17157L20.2929 4L17.4645 6.82843C17.2692 7.02369 17.2692 7.34027 17.4645 7.53554C17.6597 7.7308 17.9763 7.7308 18.1716 7.53554L21.3536 4.35356ZM1 4.5L21 4.5L21 3.5L1 3.5L1 4.5Z" fill="#12CA8F"/>
<path d="M0.646447 11.6464C0.451184 11.8417 0.451184 12.1583 0.646447 12.3536L3.82843 15.5355C4.02369 15.7308 4.34027 15.7308 4.53553 15.5355C4.7308 15.3403 4.7308 15.0237 4.53553 14.8284L1.70711 12L4.53553 9.17157C4.7308 8.97631 4.7308 8.65973 4.53553 8.46447C4.34027 8.2692 4.02369 8.2692 3.82843 8.46447L0.646447 11.6464ZM21 11.5L1 11.5V12.5L21 12.5V11.5Z" fill="#12CA8F"/>
</svg>
